<svg width="523.15625px" height="129.8158203125px" xmlns="http://www.w3.org/2000/svg" viewBox="-11.578125 10.092089843750003 523.15625 129.8158203125" style="background: rgba(0, 0, 0, 0);" preserveAspectRatio="xMidYMid"><defs><linearGradient id="editing-outline-gradient" x1="-0.41354545764260087" x2="1.4135454576426008" y1="0.09326335692419985" y2="0.9067366430758002"><stop offset="0" stop-color="#ee4208"></stop><stop offset="1" stop-color="#4139ff"></stop></linearGradient><filter id="editing-outline" x="-100%" y="-100%" width="300%" height="300%"><feMorphology in="SourceGraphic" operator="dilate" radius="3" result="outline"></feMorphology><feComposite operator="out" in="outline" in2="SourceAlpha"></feComposite></filter></defs><g filter="url(#editing-outline)"><g transform="translate(65.01998090744019, 106.32418251037598)"><path d="M6.07-8.37L34.28-8.37L34.28-18.86L14.44-18.86L14.44-18.86Q12.70-18.86 11.17-19.52L11.17-19.52L11.17-19.52Q9.64-20.18 8.52-21.30L8.52-21.30L8.52-21.30Q7.39-22.43 6.73-23.96L6.73-23.96L6.73-23.96Q6.07-25.49 6.07-27.23L6.07-27.23L6.07-36.87L6.07-36.87Q6.07-38.61 6.73-40.14L6.73-40.14L6.73-40.14Q7.39-41.67 8.52-42.80L8.52-42.80L8.52-42.80Q9.64-43.92 11.17-44.58L11.17-44.58L11.17-44.58Q12.70-45.24 14.44-45.24L14.44-45.24L40.91-45.24L40.91-36.87L14.44-36.87L14.44-27.23L34.28-27.23L34.28-27.23Q36.02-27.23 37.53-26.57L37.53-26.57L37.53-26.57Q39.04-25.91 40.19-24.79L40.19-24.79L40.19-24.79Q41.33-23.66 41.99-22.13L41.99-22.13L41.99-22.13Q42.65-20.60 42.65-18.86L42.65-18.86L42.65-8.37L42.65-8.37Q42.65-6.63 41.99-5.10L41.99-5.10L41.99-5.10Q41.33-3.57 40.19-2.44L40.19-2.44L40.19-2.44Q39.04-1.32 37.53-0.66L37.53-0.66L37.53-0.66Q36.02 0 34.28 0L34.28 0L6.07 0L6.07-8.37ZM93.97-36.87L93.97-18.35L64.02-18.35L64.02-8.37L93.97-8.37L93.97 0L64.02 0L64.02 0Q62.32 0 60.79-0.66L60.79-0.66L60.79-0.66Q59.26-1.32 58.13-2.44L58.13-2.44L58.13-2.44Q57.01-3.57 56.35-5.10L56.35-5.10L56.35-5.10Q55.69-6.63 55.69-8.37L55.69-8.37L55.69-36.87L55.69-36.87Q55.69-38.61 56.35-40.14L56.35-40.14L56.35-40.14Q57.01-41.67 58.13-42.80L58.13-42.80L58.13-42.80Q59.26-43.92 60.79-44.58L60.79-44.58L60.79-44.58Q62.32-45.24 64.02-45.24L64.02-45.24L85.60-45.24L85.60-45.24Q87.34-45.24 88.87-44.58L88.87-44.58L88.87-44.58Q90.40-43.92 91.52-42.80L91.52-42.80L91.52-42.80Q92.65-41.67 93.31-40.14L93.31-40.14L93.31-40.14Q93.97-38.61 93.97-36.87L93.97-36.87ZM85.60-36.87L64.02-36.87L64.02-26.72L85.60-26.72L85.60-36.87ZM133.47-36.87L116.23-36.87L116.23 0L107.90 0L107.90-45.24L116.23-45.24L116.23-37.26L116.23-37.26Q116.31-38.91 116.99-40.38L116.99-40.38L116.99-40.38Q117.67-41.84 118.80-42.93L118.80-42.93L118.80-42.93Q119.92-44.01 121.41-44.63L121.41-44.63L121.41-44.63Q122.90-45.24 124.60-45.24L124.60-45.24L133.47-45.24L133.47-45.24Q135.22-45.24 136.72-44.58L136.72-44.58L136.72-44.58Q138.23-43.92 139.38-42.80L139.38-42.80L139.38-42.80Q140.53-41.67 141.18-40.14L141.18-40.14L141.18-40.14Q141.84-38.61 141.84-36.87L141.84-36.87L141.84-29.23L133.47-29.23L133.47-36.87ZM173.83 0L165.12 0L147.02-45.24L155.73-45.24L169.45-10.03L183.22-45.24L191.93-45.24L173.83 0ZM201.06-45.24L209.43-45.24L209.43 0L201.06 0L201.06-45.24ZM200.64-53.95L200.64-62.66L209.85-62.66L209.85-53.95L200.64-53.95ZM253.69-36.87L232.11-36.87L232.11-8.37L253.69-8.37L253.69-16.02L262.06-16.02L262.06-8.37L262.06-8.37Q262.06-6.63 261.40-5.10L261.40-5.10L261.40-5.10Q260.75-3.57 259.62-2.44L259.62-2.44L259.62-2.44Q258.49-1.32 256.96-0.66L256.96-0.66L256.96-0.66Q255.44 0 253.69 0L253.69 0L232.11 0L232.11 0Q230.41 0 228.88-0.66L228.88-0.66L228.88-0.66Q227.36-1.32 226.23-2.44L226.23-2.44L226.23-2.44Q225.10-3.57 224.45-5.10L224.45-5.10L224.45-5.10Q223.79-6.63 223.79-8.37L223.79-8.37L223.79-36.87L223.79-36.87Q223.79-38.61 224.45-40.14L224.45-40.14L224.45-40.14Q225.10-41.67 226.23-42.80L226.23-42.80L226.23-42.80Q227.36-43.92 228.88-44.58L228.88-44.58L228.88-44.58Q230.41-45.24 232.11-45.24L232.11-45.24L253.69-45.24L253.69-45.24Q255.44-45.24 256.96-44.58L256.96-44.58L256.96-44.58Q258.49-43.92 259.62-42.80L259.62-42.80L259.62-42.80Q260.75-41.67 261.40-40.14L261.40-40.14L261.40-40.14Q262.06-38.61 262.06-36.87L262.06-36.87L262.06-29.23L253.69-29.23L253.69-36.87ZM314.27-36.87L314.27-18.35L284.32-18.35L284.32-8.37L314.27-8.37L314.27 0L284.32 0L284.32 0Q282.62 0 281.09-0.66L281.09-0.66L281.09-0.66Q279.56-1.32 278.44-2.44L278.44-2.44L278.44-2.44Q277.31-3.57 276.65-5.10L276.65-5.10L276.65-5.10Q276.00-6.63 276.00-8.37L276.00-8.37L276.00-36.87L276.00-36.87Q276.00-38.61 276.65-40.14L276.65-40.14L276.65-40.14Q277.31-41.67 278.44-42.80L278.44-42.80L278.44-42.80Q279.56-43.92 281.09-44.58L281.09-44.58L281.09-44.58Q282.62-45.24 284.32-45.24L284.32-45.24L305.90-45.24L305.90-45.24Q307.64-45.24 309.17-44.58L309.17-44.58L309.17-44.58Q310.70-43.92 311.83-42.80L311.83-42.80L311.83-42.80Q312.95-41.67 313.61-40.14L313.61-40.14L313.61-40.14Q314.27-38.61 314.27-36.87L314.27-36.87ZM305.90-36.87L284.32-36.87L284.32-26.72L305.90-26.72L305.90-36.87ZM327.31-8.37L355.52-8.37L355.52-18.86L335.68-18.86L335.68-18.86Q333.94-18.86 332.41-19.52L332.41-19.52L332.41-19.52Q330.88-20.18 329.75-21.30L329.75-21.30L329.75-21.30Q328.63-22.43 327.97-23.96L327.97-23.96L327.97-23.96Q327.31-25.49 327.31-27.23L327.31-27.23L327.31-36.87L327.31-36.87Q327.31-38.61 327.97-40.14L327.97-40.14L327.97-40.14Q328.63-41.67 329.75-42.80L329.75-42.80L329.75-42.80Q330.88-43.92 332.41-44.58L332.41-44.58L332.41-44.58Q333.94-45.24 335.68-45.24L335.68-45.24L362.15-45.24L362.15-36.87L335.68-36.87L335.68-27.23L355.52-27.23L355.52-27.23Q357.26-27.23 358.77-26.57L358.77-26.57L358.77-26.57Q360.28-25.91 361.42-24.79L361.42-24.79L361.42-24.79Q362.57-23.66 363.23-22.13L363.23-22.13L363.23-22.13Q363.89-20.60 363.89-18.86L363.89-18.86L363.89-8.37L363.89-8.37Q363.89-6.63 363.23-5.10L363.23-5.10L363.23-5.10Q362.57-3.57 361.42-2.44L361.42-2.44L361.42-2.44Q360.28-1.32 358.77-0.66L358.77-0.66L358.77-0.66Q357.26 0 355.52 0L355.52 0L327.31 0L327.31-8.37Z" fill="url(#editing-outline-gradient)"></path></g></g><style>text {
  font-size: 64px;
  font-family: Arial Black;
  dominant-baseline: central;
  text-anchor: middle;
}</style></svg>